<svg width="20" height="19" viewBox="0 0 20 19" fill="none" xmlns="http://www.w3.org/2000/svg">
<g clip-path="url(#clip0)">
<path d="M19.3412 9.5C19.3412 14.6397 15.2309 18.75 10.0912 18.75C4.95309 18.75 0.841156 14.5454 0.841156 9.5C0.841156 4.36029 4.95145 0.25 10.0912 0.25C15.1365 0.25 19.3412 4.36193 19.3412 9.5Z" stroke="#147CA3" stroke-width="0.5"/>
<path fill-rule="evenodd" clip-rule="evenodd" d="M10.0911 17.1768C14.3134 17.1768 17.7679 13.7222 17.7679 9.50001C17.7679 5.27779 14.3134 1.82324 10.0911 1.82324C5.86891 1.82324 2.41437 5.27779 2.41437 9.50001C2.41437 13.7222 5.86891 17.1768 10.0911 17.1768ZM8.69972 4.70203L8.9876 10.8434H11.1947L11.4826 4.70203H8.69972ZM9.08356 12.0909C8.79568 12.3788 8.69972 12.6667 8.69972 13.0505C8.69972 13.4344 8.89164 13.7222 9.08356 14.0101C9.27548 14.202 9.65932 14.298 10.0432 14.298C10.523 14.298 10.8108 14.202 11.0028 13.9142C11.2906 13.7222 11.3866 13.4344 11.3866 13.0505C11.3866 12.5707 11.1947 12.2828 11.0028 12.0909C10.8108 11.899 10.523 11.803 10.0432 11.803C9.65932 11.803 9.27548 11.899 9.08356 12.0909Z" fill="#147CA3"/>
</g>
<defs>
<clipPath id="clip0">
<rect width="19" height="19" fill="white" transform="translate(0.591156)"/>
</clipPath>
</defs>
</svg>
