<svg width="20" height="20" viewBox="0 0 20 20" fill="none" xmlns="http://www.w3.org/2000/svg">
<g clip-path="url(#clip0)">
<path d="M19.3412 10.3C19.3412 15.4398 15.2309 19.55 10.0912 19.55C4.95309 19.55 0.841156 15.3454 0.841156 10.3C0.841156 5.16034 4.95145 1.05005 10.0912 1.05005C15.1365 1.05005 19.3412 5.16198 19.3412 10.3Z" stroke="#999999" stroke-width="0.5"/>
<path fill-rule="evenodd" clip-rule="evenodd" d="M10.0912 18.3616C14.5053 18.3616 18.1518 14.8111 18.1518 10.301C18.1518 5.79088 14.5053 2.14442 10.0912 2.24038C5.67701 2.24038 2.03055 5.79088 2.03055 10.301C2.03055 14.7151 5.58105 18.3616 10.0912 18.3616ZM12.1063 14.4273C12.0103 14.2354 11.9144 14.0435 11.9144 13.8516C11.9144 13.6596 12.0103 13.4677 12.1063 13.2758C12.2982 13.1798 12.4901 13.0839 12.6821 13.0839C12.874 13.0839 13.0659 13.0839 13.2578 13.2758C13.3538 13.4677 13.4497 13.6596 13.4497 13.8516C13.4497 14.0435 13.4497 14.2354 13.2578 14.4273C13.0659 14.5233 12.874 14.6192 12.6821 14.6192C12.4901 14.6192 12.2982 14.6192 12.1063 14.4273ZM7.11641 13.0839C7.30833 13.0839 7.50025 13.0839 7.69216 13.2758C7.78812 13.4677 7.88408 13.6596 7.88408 13.8516C7.88408 14.0435 7.88408 14.2354 7.69216 14.4273C7.50025 14.5233 7.30833 14.6192 7.11641 14.6192C6.92449 14.6192 6.73257 14.6192 6.54065 14.4273C6.44469 14.2354 6.34873 14.0435 6.34873 13.8516C6.34873 13.6596 6.44469 13.4677 6.54065 13.2758C6.73257 13.1798 6.92449 13.0839 7.11641 13.0839ZM7.11641 13.0839L12.6821 13.0839L12.6821 13.0839H13.0659C13.1619 13.0839 13.2578 13.0839 13.3538 12.9879C13.4497 12.892 13.4497 12.796 13.4497 12.7C13.4497 12.6041 13.4497 12.5081 13.3538 12.4122C13.3538 12.3162 13.2578 12.3162 13.1619 12.3162H7.40429C7.44094 12.2429 7.47759 12.1836 7.5089 12.1329C7.55955 12.051 7.5962 11.9917 7.5962 11.9324V11.8364V11.6445V11.5485L14.1215 10.7808C14.1694 10.7808 14.2174 10.7569 14.2654 10.7329C14.3134 10.7089 14.3614 10.6849 14.4093 10.6849C14.5053 10.5889 14.5053 10.493 14.5053 10.397V7.13439C14.4242 7.05327 14.3773 6.9893 14.3431 6.94247C14.2962 6.87849 14.2728 6.84651 14.2174 6.84651C14.1215 6.75055 14.0255 6.75055 13.9295 6.75055H6.44469V6.55863V6.36671V6.17479C6.44469 6.12681 6.4207 6.10282 6.39671 6.07883C6.37272 6.05484 6.34873 6.03085 6.34873 5.98287L6.25277 5.88691H6.06085H4.33358C4.23762 5.88691 4.14166 5.88691 4.0457 5.98287C3.94974 6.07883 3.94974 6.17479 3.94974 6.27075C3.94974 6.36671 3.94974 6.46267 4.0457 6.55863C4.14166 6.65459 4.23762 6.65459 4.33358 6.65459H5.58105L6.73257 11.8364C6.73257 11.8364 6.63661 11.9324 6.63661 12.0283C6.58863 12.0763 6.56464 12.1483 6.54065 12.2202C6.51666 12.2922 6.49267 12.3642 6.44469 12.4122C6.34873 12.5081 6.34873 12.6041 6.34873 12.7C6.34873 12.796 6.34873 12.892 6.44469 12.9879C6.54065 13.0839 6.63661 13.0839 6.73257 13.0839H7.11641Z" fill="#999999"/>
</g>
<defs>
<clipPath id="clip0">
<rect width="19" height="19" fill="white" transform="translate(0.591156 0.800049)"/>
</clipPath>
</defs>
</svg>
