<svg width="14" height="12" viewBox="0 0 14 12" fill="none" xmlns="http://www.w3.org/2000/svg">
<path d="M6.70951 8.55817C6.80951 8.65489 6.90953 8.75161 7.10953 8.75161C7.30953 8.75161 7.40956 8.65489 7.50956 8.55817L10.8095 5.36664C11.0095 5.17322 11.0095 4.78636 10.8095 4.59293C10.6095 4.39951 10.2096 4.39951 10.0096 4.59293L7.70951 6.81734V1.01455C7.70951 0.724407 7.50953 0.434265 7.10953 0.434265C6.70953 0.434265 6.50956 0.627694 6.50956 1.01455V6.81734L4.20951 4.59293C4.00951 4.39951 3.60952 4.39951 3.40952 4.59293C3.20952 4.78636 3.20952 5.17322 3.40952 5.36664L6.70951 8.55817Z" fill="#34548A"/>
<path d="M13.0096 7.10747C12.7096 7.10747 12.4095 7.30089 12.4095 7.68775V10.6859H1.70953V7.68775C1.70953 7.39761 1.50956 7.10747 1.10956 7.10747C0.809558 7.10747 0.509583 7.30089 0.509583 7.68775V11.1694C0.509583 11.4596 0.709558 11.7497 1.10956 11.7497H12.9095C13.2095 11.7497 13.5096 11.5563 13.5096 11.1694V7.68775C13.6096 7.39761 13.3096 7.10747 13.0096 7.10747Z" fill="#34548A"/>
</svg>
