<svg width="23" height="23" viewBox="0 0 23 23" fill="none" xmlns="http://www.w3.org/2000/svg">
<path d="M20.125 23H2.875C1.29375 23 0 21.7062 0 20.125V2.875C0 1.29375 1.29375 0 2.875 0H20.125C21.7062 0 23 1.29375 23 2.875V20.125C23 21.7062 21.7062 23 20.125 23Z" fill="#D4D7DB"/>
<path d="M11.4996 18C11.78 18 12.0074 17.7726 12.0074 17.4922C12.0074 17.2117 11.78 16.9844 11.4996 16.9844C11.2191 16.9844 10.9918 17.2117 10.9918 17.4922C10.9918 17.7726 11.2191 18 11.4996 18Z" fill="#4D6072"/>
<path d="M15.4858 8.95522C15.4691 6.77138 13.6873 5 11.4996 5C9.30151 5 7.51324 6.78826 7.51324 8.98633C7.51324 9.26679 7.74059 9.49414 8.02106 9.49414C8.30152 9.49414 8.52887 9.26679 8.52887 8.98633C8.52887 7.34828 9.86152 6.01562 11.4996 6.01562C13.1376 6.01562 14.4703 7.34828 14.4703 8.98633C14.4703 8.99537 14.4705 9.00436 14.471 9.01329C14.4607 10.1955 13.7543 11.2565 12.6652 11.7215C11.6486 12.1555 10.9918 13.1605 10.9918 14.2818V15.4609C10.9918 15.7414 11.2191 15.9688 11.4996 15.9688C11.78 15.9688 12.0074 15.7414 12.0074 15.4609V14.2818C12.0074 13.5679 12.4221 12.9296 13.064 12.6556C14.5361 12.027 15.4871 10.5868 15.4867 8.9862C15.4867 8.97579 15.4864 8.96548 15.4858 8.95522Z" fill="#4D6072"/>
</svg>
