<svg width="23" height="23" viewBox="0 0 23 23" fill="none" xmlns="http://www.w3.org/2000/svg">
<path d="M19.9491 22.7653H3.05119C1.50221 22.7653 0.234863 21.4979 0.234863 19.9489V3.05098C0.234863 1.502 1.50221 0.23465 3.05119 0.23465H19.9491C21.4981 0.23465 22.7655 1.502 22.7655 3.05098V19.9489C22.7655 21.4979 21.4981 22.7653 19.9491 22.7653Z" fill="#D4D7DB"/>
<path fill-rule="evenodd" clip-rule="evenodd" d="M18.4704 10.2979C18.6831 10.2979 18.929 10.4565 18.9527 10.6674C19.0164 11.2354 19.0157 11.809 18.9494 12.3728C18.9234 12.5924 18.7256 12.7581 18.5104 12.7407L18.4176 12.7382C17.7547 12.7382 17.1383 13.1466 16.8835 13.7549C16.6124 14.401 16.7816 15.1532 17.3036 15.6257C17.4672 15.7739 17.4868 16.0238 17.3483 16.1957C16.9917 16.64 16.5837 17.0436 16.1351 17.3954C15.9624 17.5289 15.7173 17.5094 15.5691 17.348C15.1227 16.858 14.3288 16.6735 13.7117 16.9256C13.0731 17.1869 12.6602 17.8298 12.6853 18.525C12.6926 18.743 12.5316 18.9305 12.3142 18.9545C12.0397 18.985 11.7652 19 11.4908 19C11.2017 19 10.9135 18.9834 10.6268 18.9498C10.4076 18.9248 10.2458 18.7324 10.2588 18.5117C10.2986 17.8091 9.89136 17.1548 9.24396 16.8839C8.62595 16.6245 7.82305 16.8082 7.37429 17.3044C7.22528 17.4687 6.97527 17.4881 6.80337 17.3496C6.3655 16.9969 5.96538 16.5931 5.6171 16.1492C5.48165 15.978 5.50215 15.7317 5.66257 15.5843C6.17543 15.1139 6.34409 14.3688 6.08208 13.7295C5.81878 13.0895 5.19201 12.6853 4.53877 12.7019C4.32379 12.7019 4.07061 12.5447 4.04693 12.3329C3.98349 11.7651 3.9842 11.1909 4.05011 10.6276C4.07638 10.4113 4.24562 10.2515 4.48344 10.2592C5.21627 10.2592 5.85647 9.862 6.1153 9.24541C6.38639 8.59866 6.21805 7.84682 5.69591 7.37399C5.53329 7.22602 5.51285 6.9764 5.65122 6.80417C6.00631 6.36111 6.41506 5.9573 6.86448 5.6046C7.03644 5.47052 7.28301 5.49037 7.43046 5.65202C7.87657 6.14276 8.67401 6.32537 9.2871 6.07491C9.92639 5.81303 10.3384 5.17024 10.3141 4.47477C10.3069 4.25681 10.4682 4.06953 10.6854 4.04553C11.2473 3.98319 11.8125 3.98507 12.3728 4.04994C12.5927 4.07556 12.7541 4.26738 12.7409 4.48813C12.7009 5.19048 13.1084 5.84482 13.7539 6.11643C14.3744 6.37532 15.1775 6.19135 15.6245 5.69626C15.7727 5.53221 16.0237 5.51314 16.1945 5.65014C16.6311 5.99985 17.0308 6.40341 17.3826 6.8501C17.5178 7.02149 17.4982 7.26838 17.3369 7.41583C16.8249 7.88555 16.6564 8.63097 16.9175 9.27026C17.1733 9.89456 17.7832 10.2979 18.4704 10.2979ZM11.5 16C13.9852 16 16 13.9853 16 11.5C16 9.01472 13.9852 7 11.5 7C9.01468 7 6.99996 9.01472 6.99996 11.5C6.99996 13.9853 9.01468 16 11.5 16Z" fill="#34495E"/>
</svg>
