<svg width="17" height="13" viewBox="0 0 17 13" fill="none" xmlns="http://www.w3.org/2000/svg">
<path d="M0.977712 0.0325193L0.972168 3.33252L4.47217 3.3384L4.47771 0.0383992L0.977712 0.0325193Z" fill="#34495E"/>
<path d="M5.55889 0.0359373L5.55334 3.33594L16.6533 3.35459L16.6589 0.0545849L5.55889 0.0359373Z" fill="#34495E"/>
<path d="M1.03936 4.35674L1.03381 7.65674L4.53381 7.66262L4.53936 4.36262L1.03936 4.35674Z" fill="#34495E"/>
<path d="M5.6206 4.35967L5.61505 7.65967L16.7151 7.67832L16.7206 4.37832L5.6206 4.35967Z" fill="#34495E"/>
<path d="M1.00109 8.68047L0.995544 11.9805L4.49554 11.9863L4.50109 8.68635L1.00109 8.68047Z" fill="#34495E"/>
<path d="M5.58227 8.6834L5.57672 11.9834L16.6767 12.002L16.6823 8.70205L5.58227 8.6834Z" fill="#34495E"/>
</svg>
