<svg width="13" height="13" viewBox="0 0 13 13" fill="none" xmlns="http://www.w3.org/2000/svg">
<path d="M0.0332079 0.0768566L0.027832 3.27686L3.22783 3.28223L3.23321 0.0822325L0.0332079 0.0768566Z" fill="#34495E"/>
<path d="M8.87232 0.145702L8.86694 3.3457L12.0669 3.35108L12.0723 0.151078L8.87232 0.145702Z" fill="#34495E"/>
<path d="M4.50281 0.061718L4.49744 3.26172L7.69744 3.26709L7.70281 0.0670939L4.50281 0.061718Z" fill="#34495E"/>
<path d="M0.048955 4.44697L0.0435791 7.64697L3.24358 7.65235L3.24895 4.45235L0.048955 4.44697Z" fill="#34495E"/>
<path d="M8.78797 4.51533L8.78259 7.71533L11.9826 7.72071L11.988 4.52071L8.78797 4.51533Z" fill="#34495E"/>
<path d="M4.41834 4.53096L4.41296 7.73096L7.61296 7.73633L7.61834 4.53633L4.41834 4.53096Z" fill="#34495E"/>
<path d="M0.06458 8.81611L0.0592041 12.0161L3.2592 12.0215L3.26458 8.82149L0.06458 8.81611Z" fill="#34495E"/>
<path d="M8.80372 8.88496L8.79834 12.085L11.9983 12.0903L12.0037 8.89034L8.80372 8.88496Z" fill="#34495E"/>
<path d="M4.43409 8.90059L4.42871 12.1006L7.62871 12.106L7.63409 8.90596L4.43409 8.90059Z" fill="#34495E"/>
</svg>
