<svg width="13" height="13" viewBox="0 0 13 13" fill="none" xmlns="http://www.w3.org/2000/svg">
<path d="M0.973149 0.966505L0.967773 4.1665L4.16777 4.17188L4.17315 0.971881L0.973149 0.966505Z" fill="#F05A28"/>
<path d="M9.81202 1.03535L9.80664 4.23535L13.0066 4.24073L13.012 1.04073L9.81202 1.03535Z" fill="#F05A28"/>
<path d="M5.44288 0.951366L5.4375 4.15137L8.6375 4.15674L8.64288 0.956742L5.44288 0.951366Z" fill="#F05A28"/>
<path d="M0.988774 5.33662L0.983398 8.53662L4.1834 8.542L4.18877 5.342L0.988774 5.33662Z" fill="#F05A28"/>
<path d="M9.72803 5.40498L9.72266 8.60498L12.9227 8.61036L12.928 5.41036L9.72803 5.40498Z" fill="#F05A28"/>
<path d="M5.35791 5.4206L5.35254 8.62061L8.55254 8.62598L8.55791 5.42598L5.35791 5.4206Z" fill="#F05A28"/>
<path d="M1.0044 9.70576L0.999023 12.9058L4.19902 12.9111L4.2044 9.71114L1.0044 9.70576Z" fill="#F05A28"/>
<path d="M9.74366 9.77461L9.73828 12.9746L12.9383 12.98L12.9437 9.77998L9.74366 9.77461Z" fill="#F05A28"/>
<path d="M5.37452 9.79023L5.36914 12.9902L8.56914 12.9956L8.57452 9.79561L5.37452 9.79023Z" fill="#F05A28"/>
</svg>
