<svg width="17" height="13" viewBox="0 0 17 13" fill="none" xmlns="http://www.w3.org/2000/svg">
<path d="M0.917653 0.922168L0.912109 4.22217L4.41211 4.22805L4.41765 0.928048L0.917653 0.922168Z" fill="#F05A28"/>
<path d="M5.49871 0.925586L5.49316 4.22559L16.5932 4.24423L16.5987 0.944233L5.49871 0.925586Z" fill="#F05A28"/>
<path d="M0.979177 5.24639L0.973633 8.54639L4.47363 8.55227L4.47918 5.25227L0.979177 5.24639Z" fill="#F05A28"/>
<path d="M5.56023 5.24932L5.55469 8.54932L16.6547 8.56796L16.6602 5.26796L5.56023 5.24932Z" fill="#F05A28"/>
<path d="M0.941091 9.57012L0.935547 12.8701L4.43555 12.876L4.44109 9.576L0.941091 9.57012Z" fill="#F05A28"/>
<path d="M5.52215 9.57305L5.5166 12.873L16.6166 12.8917L16.6221 9.59169L5.52215 9.57305Z" fill="#F05A28"/>
</svg>
